<?xml version="1.0" encoding="UTF-8"?>
<svg width="16" height="16" version="1.1" xmlns="http://www.w3.org/2000/svg">
 <path d="m8 1.0039c-0.554 0-1 0.446-1 1v3.0938l-1.5605 1.0469 3.5625 3.5625v-1.2969l4.9355 1.625c1.047 0.261 1.0625 0.26475 1.0625-0.53125 0-0.432-0.011-0.43375-0.5-0.71875l-5.5-3.6875v-3.0938c0-0.554-0.446-1-1-1zm-3.6172 5.8477-2.8828 1.9336c-0.457 0.266-0.498 0.28325-0.5 0.65625v0.0625c1e-3 0.794 0.03425 0.78025 1.0312 0.53125l4.1719-1.3633-1.8203-1.8203zm2.6191 2.6191v3.4395l-1.7832 1.2188c-0.209 0.14-0.21875 0.12275-0.21875 0.34375v0.21875c0 0.428 0.4375 0.28125 0.4375 0.28125l2.5625-0.28125 2.5625 0.28125s0.4375 0.14 0.4375-0.25v-0.25c0-0.211-0.00875-0.20375-0.21875-0.34375l-1.7793-1.2188v-1.4414l-2-1.998z" fill="#555761" opacity=".5" stop-color="#000000" style="-inkscape-stroke:none;font-variation-settings:normal"/>
 <rect transform="rotate(-45)" x="-.62577" y="1.4162" width="1.248" height="19.8" rx=".5" ry=".5" fill="#555761" stop-color="#000000" style="font-variation-settings:normal"/>
</svg>
