<?xml version="1.0" encoding="UTF-8" standalone="no"?>
<svg
   height="16"
   width="16"
   version="1.1"
   id="svg6"
   xmlns="http://www.w3.org/2000/svg"
   xmlns:svg="http://www.w3.org/2000/svg">
  <defs
     id="defs10" />
  <path
     style="fill:#555761;stroke-width:0.257199;-inkscape-stroke:none;stop-color:#000000"
     d="m 8.0000011,11.254271 c -0.6071191,1.1e-5 -1.2139654,0.187025 -1.7271085,0.561355 -0.2046495,0.149288 -0.2026155,0.444826 -0.023314,0.624127 l 1.425806,1.425807 a 0.45912758,0.45912758 0 0 0 0.6492358,0 L 9.7504256,12.439753 C 9.9297256,12.260452 9.931811,11.964942 9.7271116,11.815626 9.2139548,11.441315 8.6071198,11.254261 8.0000011,11.254271 Z"
     id="path479" />
  <path
     id="path477"
     style="fill:#555761;stroke-width:0.257199;-inkscape-stroke:none;stop-color:#000000;opacity:0.5"
     d="M 7.8730469 3 C 7.6195113 3.00291 7.2094768 3.0251741 6.9570312 3.0488281 C 4.5182874 3.2773459 2.2214187 4.2993753 0.41992188 5.9589844 C 0.23344088 6.130778 0.23280734 6.4242155 0.41210938 6.6035156 L 1.3789062 7.5703125 C 1.5582064 7.7496127 1.8470391 7.7481256 2.0351562 7.578125 C 5.4177371 4.5215666 10.582265 4.5215631 13.964844 7.578125 C 14.152958 7.7481086 14.441792 7.7495983 14.621094 7.5703125 L 15.587891 6.6035156 C 15.76719 6.4242156 15.766556 6.1307821 15.580078 5.9589844 C 13.481964 4.0260306 10.725645 2.96731 7.8730469 3 z M 8.0859375 7.0917969 C 7.8324296 7.0887667 7.4217218 7.1111123 7.1699219 7.140625 C 5.736411 7.3086802 4.3872601 7.9089626 3.3027344 8.8613281 C 3.1122354 9.028614 3.1136689 9.3206998 3.2929688 9.5 L 4.2832031 10.492188 C 4.4625032 10.671487 4.7508102 10.666442 4.9453125 10.503906 C 5.3559105 10.1608 5.8218654 9.8906811 6.3222656 9.7011719 C 6.5593046 9.6114033 6.9569475 9.5041993 7.2070312 9.4628906 C 8.5787948 9.2363041 9.983725 9.6168727 11.052734 10.505859 C 11.247627 10.667931 11.537497 10.67149 11.716797 10.492188 L 12.707031 9.5 C 12.886332 9.3206998 12.887757 9.0286258 12.697266 8.8613281 C 11.420806 7.7402865 9.784667 7.111869 8.0859375 7.0917969 z " />
</svg>
