<?xml version="1.0" encoding="UTF-8" standalone="no"?>
<svg
   height="16"
   width="16"
   version="1.1"
   id="svg6"
   xmlns="http://www.w3.org/2000/svg"
   xmlns:svg="http://www.w3.org/2000/svg">
  <defs
     id="defs10" />
  <path
     id="path492-3-56"
     style="font-variation-settings:normal;vector-effect:none;fill:#555761;fill-opacity:1;stroke:none;stroke-width:4;stroke-linecap:round;stroke-linejoin:round;stroke-miterlimit:4;stroke-dasharray:none;stroke-dashoffset:0;stroke-opacity:1;-inkscape-stroke:none;stop-color:#000000;opacity:0.5"
     d="M 2.5351562 1.5 A 0.75 0.75 0 0 0 1.8984375 1.8574219 L 1.8945312 1.8554688 A 10.4875 10.4875 0 0 0 1.65625 2.3359375 L 2.7832031 3.4628906 A 8.9875002 8.9875002 0 0 1 3.203125 2.5917969 A 0.75 0.75 0 0 0 3.2851562 2.25 A 0.75 0.75 0 0 0 2.5351562 1.5 z M 13.464844 1.5 A 0.75 0.75 0 0 0 12.714844 2.25 A 0.75 0.75 0 0 0 12.796875 2.5917969 A 8.9875002 8.9875002 0 0 1 13.955078 7 A 8.9875002 8.9875002 0 0 1 12.796875 11.408203 A 0.75 0.75 0 0 0 12.714844 11.75 A 0.75 0.75 0 0 0 13.464844 12.5 A 0.75 0.75 0 0 0 14.101562 12.142578 L 14.103516 12.144531 A 10.4875 10.4875 0 0 0 15.453125 7 A 10.4875 10.4875 0 0 0 14.105469 1.8554688 L 14.101562 1.8574219 A 0.75 0.75 0 0 0 13.464844 1.5 z M 4.7011719 3 A 0.75 0.75 0 0 0 4.1015625 3.2988281 L 4.09375 3.2949219 A 7 7 0 0 0 3.59375 4.2734375 L 4.765625 5.4453125 A 5.4958401 5.4958401 0 0 1 5.3710938 4.0917969 L 5.3671875 4.0898438 A 0.75 0.75 0 0 0 5.4511719 3.75 A 0.75 0.75 0 0 0 4.7011719 3 z M 11.298828 3 A 0.75 0.75 0 0 0 10.548828 3.75 A 0.75 0.75 0 0 0 10.632812 4.0898438 L 10.628906 4.0917969 A 5.4958401 5.4958401 0 0 1 11.462891 7 A 5.4958401 5.4958401 0 0 1 10.628906 9.9082031 L 10.630859 9.9101562 A 0.75 0.75 0 0 0 10.546875 10.25 A 0.75 0.75 0 0 0 11.296875 11 A 0.75 0.75 0 0 0 11.898438 10.701172 L 11.90625 10.705078 A 7 7 0 0 0 12.966797 7 A 7 7 0 0 0 11.90625 3.2949219 L 11.898438 3.2988281 A 0.75 0.75 0 0 0 11.298828 3 z M 1.1308594 3.5761719 A 10.4875 10.4875 0 0 0 0.546875 7 A 10.4875 10.4875 0 0 0 1.8945312 12.144531 L 1.8984375 12.142578 A 0.75 0.75 0 0 0 2.5351562 12.5 A 0.75 0.75 0 0 0 3.2851562 11.75 A 0.75 0.75 0 0 0 3.203125 11.408203 A 8.9875002 8.9875002 0 0 1 2.0449219 7 A 8.9875002 8.9875002 0 0 1 2.3300781 4.7753906 L 1.1308594 3.5761719 z M 7.9667969 5 A 2 2 0 0 0 6.0078125 6.6894531 L 8.9667969 9.6484375 L 8.9667969 8.7246094 A 2 2 0 0 0 9.9667969 7 A 2 2 0 0 0 7.9667969 5 z M 3.1855469 5.6308594 A 7 7 0 0 0 3.0332031 7 A 7 7 0 0 0 4.09375 10.705078 L 4.1015625 10.701172 A 0.75 0.75 0 0 0 4.703125 11 A 0.75 0.75 0 0 0 5.453125 10.25 A 0.75 0.75 0 0 0 5.3671875 9.9101562 L 5.3710938 9.9082031 A 5.4958401 5.4958401 0 0 1 4.5371094 7 A 5.4958401 5.4958401 0 0 1 4.5390625 6.984375 L 3.1855469 5.6308594 z M 6.9667969 9.4121094 L 6.9667969 15 C 6.9667969 15.553998 7.4127979 16 7.9667969 16 C 8.5207957 16 8.9667969 15.553998 8.9667969 15 L 8.9667969 11.412109 L 6.9667969 9.4121094 z " />
  <rect
     style="font-variation-settings:normal;fill:#555761;fill-opacity:1;stroke:none;stroke-width:0.992001;stroke-linecap:square;stroke-linejoin:miter;stroke-miterlimit:4;stroke-dasharray:none;stroke-dashoffset:0;stroke-opacity:1;marker:none;stop-color:#000000"
     id="rect2480-1-6"
     width="1.248"
     height="19.799999"
     x="-0.6257652"
     y="1.416185"
     rx="0.5"
     ry="0.5"
     transform="rotate(-45)" />
</svg>
