<?xml version="1.0" encoding="UTF-8" standalone="no"?>
<svg
   height="16"
   width="16"
   version="1.1"
   id="svg6"
   xmlns="http://www.w3.org/2000/svg"
   xmlns:svg="http://www.w3.org/2000/svg">
  <defs
     id="defs10" />
  <path
     id="path492-3-56"
     style="font-variation-settings:normal;vector-effect:none;fill:#555761;fill-opacity:1;stroke:none;stroke-width:4;stroke-linecap:round;stroke-linejoin:round;stroke-miterlimit:4;stroke-dasharray:none;stroke-dashoffset:0;stroke-opacity:1;-inkscape-stroke:none;stop-color:#000000;opacity:0.5"
     d="M 2.5351562 1.5 A 0.75 0.75 0 0 0 1.8984375 1.8574219 L 1.8945312 1.8554688 A 10.4875 10.4875 0 0 0 0.546875 7 A 10.4875 10.4875 0 0 0 1.8945312 12.144531 L 1.8984375 12.142578 A 0.75 0.75 0 0 0 2.5351562 12.5 A 0.75 0.75 0 0 0 3.2851562 11.75 A 0.75 0.75 0 0 0 3.203125 11.408203 A 8.9875002 8.9875002 0 0 1 2.0449219 7 A 8.9875002 8.9875002 0 0 1 3.203125 2.5917969 A 0.75 0.75 0 0 0 3.2851562 2.25 A 0.75 0.75 0 0 0 2.5351562 1.5 z M 13.464844 1.5 A 0.75 0.75 0 0 0 12.714844 2.25 A 0.75 0.75 0 0 0 12.796875 2.5917969 A 8.9875002 8.9875002 0 0 1 13.955078 7 A 8.9875002 8.9875002 0 0 1 12.796875 11.408203 A 0.75 0.75 0 0 0 12.714844 11.75 A 0.75 0.75 0 0 0 13.464844 12.5 A 0.75 0.75 0 0 0 14.101562 12.142578 L 14.103516 12.144531 A 10.4875 10.4875 0 0 0 15.453125 7 A 10.4875 10.4875 0 0 0 14.105469 1.8554688 L 14.101562 1.8574219 A 0.75 0.75 0 0 0 13.464844 1.5 z M 4.7011719 3 A 0.75 0.75 0 0 0 4.1015625 3.2988281 L 4.09375 3.2949219 A 7 7 0 0 0 3.0332031 7 A 7 7 0 0 0 4.09375 10.705078 L 4.1015625 10.701172 A 0.75 0.75 0 0 0 4.703125 11 A 0.75 0.75 0 0 0 5.453125 10.25 A 0.75 0.75 0 0 0 5.3671875 9.9101562 L 5.3710938 9.9082031 A 5.4958401 5.4958401 0 0 1 5.2949219 9.7636719 C 5.1161994 9.7356143 4.9409073 9.6854486 4.7773438 9.6152344 C 4.1607264 9.2649028 3.7296176 8.5559014 3.8066406 7.8378906 C 3.861432 7.3118184 4.150358 6.8292476 4.5703125 6.53125 A 5.4958401 5.4958401 0 0 1 5.3710938 4.0917969 L 5.3671875 4.0898438 A 0.75 0.75 0 0 0 5.4511719 3.75 A 0.75 0.75 0 0 0 4.7011719 3 z M 11.298828 3 A 0.75 0.75 0 0 0 10.548828 3.75 A 0.75 0.75 0 0 0 10.632812 4.0898438 L 10.628906 4.0917969 A 5.4958401 5.4958401 0 0 1 11.431641 6.5390625 C 11.618039 6.6689214 11.785764 6.829545 11.919922 7.0117188 C 12.282038 7.6215312 12.29589 8.4554273 11.871094 9.0371094 C 11.589111 9.4146534 11.159292 9.6939813 10.699219 9.7734375 A 5.4958401 5.4958401 0 0 1 10.628906 9.9082031 L 10.630859 9.9101562 A 0.75 0.75 0 0 0 10.546875 10.25 A 0.75 0.75 0 0 0 11.296875 11 A 0.75 0.75 0 0 0 11.898438 10.701172 L 11.90625 10.705078 A 7 7 0 0 0 12.966797 7 A 7 7 0 0 0 11.90625 3.2949219 L 11.898438 3.2988281 A 0.75 0.75 0 0 0 11.298828 3 z M 7.9667969 5 A 2 2 0 0 0 6.1191406 6.2773438 C 6.3879158 6.3557441 6.6372543 6.4963125 6.8007812 6.6914062 C 7.2251005 6.2291619 7.9798736 6.0749962 8.5644531 6.3144531 C 9.1249282 6.6625589 9.2829019 6.6268237 9.84375 6.3144531 A 2 2 0 0 0 7.9667969 5 z M 8.9648438 9.4472656 C 8.8983417 9.4832096 8.8293468 9.5444874 8.7558594 9.6347656 C 8.1830925 9.8805907 7.4579108 9.8509814 6.9667969 9.4628906 L 6.9667969 15 C 6.9667969 15.553998 7.4127979 16 7.9667969 16 C 8.5207957 16 8.9667969 15.553998 8.9667969 15 L 8.9667969 9.4472656 C 8.9662621 9.4475518 8.9653788 9.4469764 8.9648438 9.4472656 z " />
  <path
     id="path921"
     d="m 5.5996094,7.1992188 a 0.8007812,0.8007812 0 0 0 0,1.6015624 0.8007812,0.8007812 0 0 0 0,-1.6015624 z M 8,7.1992188 A 0.8007812,0.8007812 0 0 0 8,8.8007812 0.8007812,0.8007812 0 0 0 8,7.1992188 Z m 2.400391,0 a 0.8007812,0.8007812 0 0 0 0,1.6015624 0.8007812,0.8007812 0 0 0 0,-1.6015624 z"
     style="vector-effect:none;fill:#555761;fill-opacity:1;stroke-width:1;stroke-linecap:butt;stroke-linejoin:miter;stroke-miterlimit:4;stroke-dasharray:none;stroke-dashoffset:0;stroke-opacity:1" />
</svg>
