<?xml version="1.0" encoding="UTF-8"?>
<svg width="16" height="16" version="1.1" xmlns="http://www.w3.org/2000/svg">
 <path d="m7.873 3c-0.25354 0.00291-0.66357 0.025174-0.91602 0.048828-2.4387 0.22852-4.7356 1.2505-6.5371 2.9102-0.18648 0.17179-0.18711 0.46523-0.0078125 0.64453l0.9668 0.9668c0.1793 0.1793 0.46813 0.17781 0.65625 0.0078125 0.74428-0.67254 1.5742-1.1976 2.4531-1.5742 0.66591-1.1881 1.9668-2.0332 3.3613-2.0352 1.2515-0.069905 2.5094 0.5205 3.2949 1.4902 0.15119 0.17366 0.28235 0.36009 0.39453 0.55664 0.86877 0.37571 1.6892 0.89694 2.4258 1.5625 0.18811 0.16998 0.47695 0.17147 0.65625-0.0078125l0.9668-0.9668c0.1793-0.1793 0.17866-0.47273-0.007813-0.64453-2.0981-1.933-4.8544-2.9917-7.707-2.959zm-3.8672 5.3203c-0.24423 0.16566-0.47974 0.34486-0.70312 0.54102-0.1905 0.16729-0.18907 0.45937-0.0097656 0.63867l0.99023 0.99219c0.1793 0.1793 0.46761 0.17425 0.66211 0.011718 0.4106-0.34311 0.87655-0.61322 1.377-0.80273 0.0039141-0.0014823 0.0096719-0.0024147 0.013672-0.0039063 0.12923-0.26839 0.29537-0.51707 0.49219-0.72656-0.60989-0.0045361-1.2397-6.671e-4 -1.8574-0.0019531-0.69607 0.17191-0.97635-0.086518-0.96484-0.64844zm8.0098 0.013672c-0.07689 0.80736-0.39012 1.5896-0.92383 2.1992 0.19298 0.13274 0.4571 0.12689 0.625-0.041015l0.99023-0.99219c0.1793-0.1793 0.18073-0.47137-0.009765-0.63867-0.21711-0.19067-0.4452-0.36571-0.68164-0.52734zm-5.7715 3.5098c-0.17252 0.15545-0.16375 0.4261 0.0058594 0.5957l0.24219 0.24219c0.068825-0.078989 0.1447-0.1531 0.23047-0.2207-0.21217-0.17902-0.36861-0.38885-0.47852-0.61719zm3.5508 0.035156c-0.11068 0.21918-0.23007 0.43425-0.44922 0.57812 0.066463 0.061887 0.1302 0.12834 0.18945 0.19727l0.21484-0.21484c0.15689-0.15689 0.1792-0.4015 0.044922-0.56055z" fill="#555761" opacity=".5" stop-color="#000000" stroke-width=".2572" style="-inkscape-stroke:none"/>
 <path d="m7.848 4.969c1.458-0.108 2.892 0.99 3.142 2.435 0.131 0.846-0.014 1.804-0.64 2.435-0.382 0.431-0.923 0.753-1.314 1.13 0.02 0.689-0.807 1.239-1.424 0.897-0.465-0.216-0.683-0.779-0.537-1.261 0.157-0.784 0.801-1.312 1.396-1.78 0.262-0.248 0.61-0.514 0.565-0.919-9e-3 -0.602-0.64-1.06-1.217-0.919-0.463 0.067-0.83 0.512-0.783 0.982h-2c-0.095-1.17 0.65-2.32 1.733-2.752 0.342-0.145 0.71-0.228 1.08-0.248zm0.188 8c0.649-0.025 1.171 0.685 0.955 1.297-0.17 0.623-0.993 0.913-1.514 0.532-0.547-0.34-0.59-1.21-0.077-1.6a0.998 0.998 0 0 1 0.636-0.23z" color="#bebebe" fill="#666" overflow="visible"/>
</svg>
