<?xml version="1.0" encoding="UTF-8" standalone="no"?>
<svg
   height="16"
   width="16"
   version="1.1"
   id="svg6"
   xmlns="http://www.w3.org/2000/svg"
   xmlns:svg="http://www.w3.org/2000/svg">
  <defs
     id="defs10" />
  <path
     id="path400-7-5-3-5-62-7"
     style="fill:#555761;stroke-width:0.257199;-inkscape-stroke:none;stop-color:#000000"
     d="M 7.8726644,3.0007349 C 7.6191286,3.0036449 7.2086484,3.0255039 6.9562026,3.0491579 4.5174563,3.2776759 2.2205139,4.3003443 0.41901529,5.959955 0.23253411,6.1317488 0.23254108,6.4245095 0.41184329,6.6038098 L 1.3785221,7.5704884 c 0.1793003,0.1793004 0.4682915,0.1771608 0.6564088,0.00716 3.3825842,-3.0565615 8.5475601,-3.056565 11.9301421,0 0.188114,0.1699838 0.477108,0.172126 0.65641,-0.00716 L 15.58816,6.6038102 C 15.76746,6.42451 15.767463,6.1317535 15.580985,5.9599556 13.482869,4.0269999 10.725265,2.9680449 7.8726644,3.0007349 Z M 8.0860871,7.0916332 C 7.8325789,7.088603 7.4214255,7.1105401 7.1696253,7.1400528 5.736113,7.3081082 4.3874371,7.9094147 3.3029103,8.8617812 3.1124111,9.0290672 3.1128493,9.3209557 3.2921493,9.5002561 l 0.9917872,0.9917879 c 0.1793003,0.1793 0.4672868,0.175086 0.6617893,0.01255 C 5.3563242,10.161487 5.8227082,9.8906319 6.3231089,9.7011225 6.5601481,9.6113538 6.9572044,9.5038997 7.2072884,9.462591 8.5790533,9.2360042 9.9834706,9.6174024 11.052481,10.50639 c 0.194893,0.162072 0.484283,0.164953 0.663583,-0.01435 L 12.70785,9.5002496 C 12.887151,9.3209492 12.887581,9.0290727 12.697089,8.8617749 11.420628,7.7407322 9.7848174,7.1116953 8.0860862,7.0916232 Z m -0.086086,4.1626378 c -0.6071191,1.1e-5 -1.2139654,0.187025 -1.7271085,0.561355 -0.2046495,0.149288 -0.2026155,0.444826 -0.023314,0.624127 l 1.425806,1.425807 a 0.45912758,0.45912758 0 0 0 0.6492358,0 L 9.7504256,12.439753 C 9.9297256,12.260452 9.931811,11.964942 9.7271116,11.815626 9.2139548,11.441315 8.6071198,11.254261 8.0000011,11.254271 Z" />
</svg>
