<?xml version="1.0" encoding="UTF-8"?>
<svg width="16" height="16" version="1.1" xml:space="preserve" xmlns="http://www.w3.org/2000/svg"><path d="m7.873 3c-0.25354 0.00291-0.66357 0.025174-0.91602 0.048828-1.2644 0.11848-2.49 0.45306-3.6289 0.97656l1.752 1.752c2.9856-1.0333 6.4115-0.43413 8.8848 1.8008 0.18811 0.16998 0.47695 0.17147 0.65625-0.0078125l0.9668-0.9668c0.1793-0.1793 0.17866-0.47273-0.007813-0.64453-2.0981-1.933-4.8544-2.9917-7.707-2.959zm-5.6973 1.6387c-0.62383 0.38037-1.2125 0.81973-1.7559 1.3203-0.18648 0.17179-0.18711 0.46523-0.0078125 0.64453l0.9668 0.9668c0.1793 0.1793 0.46813 0.17781 0.65625 0.0078125 0.56083-0.50677 1.1719-0.9269 1.8145-1.2656l-1.6738-1.6738zm5.9102 2.4531c-0.25351-0.0030302-0.66422 0.019315-0.91602 0.048828-0.21037 0.024662-0.41885 0.0585-0.625 0.10156l2.2207 2.2207c0.83245 0.13717 1.6247 0.49209 2.2871 1.043 0.19489 0.16207 0.48476 0.16563 0.66406-0.013671l0.99023-0.99219c0.1793-0.1793 0.18073-0.47137-0.009765-0.63867-1.2765-1.121-2.9126-1.7495-4.6113-1.7695zm-2.8828 0.57422c-0.68863 0.29454-1.3313 0.69558-1.9004 1.1953-0.1905 0.16729-0.18907 0.45937-0.0097656 0.63867l0.99023 0.99219c0.1793 0.1793 0.46761 0.17425 0.66211 0.011718 0.4106-0.34311 0.87655-0.61322 1.377-0.80273 0.18876-0.071487 0.47621-0.1535 0.71289-0.20508l-1.832-1.8301zm2.7969 3.5879c-0.60712 1.1e-5 -1.2134 0.18817-1.7266 0.5625-0.20465 0.14929-0.20274 0.44375-0.023438 0.62305l1.4258 1.4258a0.45913 0.45913 0 0 0 0.64844 0l1.4258-1.4258c0.039866-0.039866 0.069778-0.086293 0.091797-0.13476l-0.88867-0.89063c-0.3085-0.10571-0.63044-0.16016-0.95312-0.16016z" fill="#555761" opacity=".5" stop-color="#000000" stroke-width=".2572" style="-inkscape-stroke:none"/><rect transform="rotate(-45)" x="-.62577" y="1.4162" width="1.248" height="19.8" rx=".5" ry=".5" fill="#555761" stop-color="#000000" style="font-variation-settings:normal"/></svg>
