<?xml version="1.0" encoding="UTF-8" standalone="no"?>
<svg
   height="16"
   width="16"
   version="1.1"
   id="svg6"
   xml:space="preserve"
   xmlns="http://www.w3.org/2000/svg"
   xmlns:svg="http://www.w3.org/2000/svg"><defs
     id="defs10" /><path
     id="path8117"
     style="color:#000000;font-style:normal;font-variant:normal;font-weight:normal;font-stretch:normal;font-size:medium;line-height:normal;font-family:sans-serif;font-variation-settings:normal;text-indent:0;text-align:start;text-decoration:none;text-decoration-line:none;text-decoration-style:solid;text-decoration-color:#000000;letter-spacing:normal;word-spacing:normal;text-transform:none;writing-mode:lr-tb;direction:ltr;baseline-shift:baseline;text-anchor:start;white-space:normal;clip-rule:nonzero;display:inline;overflow:visible;visibility:visible;opacity:0.5;isolation:auto;mix-blend-mode:normal;color-interpolation:sRGB;color-interpolation-filters:linearRGB;solid-color:#000000;solid-opacity:1;vector-effect:none;fill:#555761;fill-opacity:1;fill-rule:nonzero;stroke:none;stroke-width:4;stroke-linecap:round;stroke-linejoin:round;stroke-miterlimit:4;stroke-dasharray:none;stroke-dashoffset:0;stroke-opacity:1;-inkscape-stroke:none;marker:none;color-rendering:auto;image-rendering:auto;shape-rendering:auto;text-rendering:auto;enable-background:accumulate;stop-color:#000000"
     d="M 8 1 L 2 2.9667969 L 2 3.2851562 C 2 6.8154094 2.0789857 8.8923064 2.8828125 10.527344 C 3.6866393 12.16238 5.1737324 13.371271 7.7851562 14.882812 L 8 15.005859 L 8.2148438 14.882812 C 8.3412878 14.809624 8.4529965 14.739821 8.5742188 14.667969 C 8.4316602 14.409215 8.3168335 14.137191 8.2285156 13.855469 C 8.2113219 13.865476 8.1950461 13.874745 8.1777344 13.884766 L 8 13.988281 L 7.8222656 13.884766 C 5.646079 12.625148 4.4042305 11.469954 3.734375 10.107422 C 3.0645193 8.7448907 3 7.0141432 3 4.0722656 L 3 3.8066406 L 8 2 L 13 3.8066406 L 13 4.0722656 C 13 5.7189857 12.97903 6.9858803 12.84375 8.0214844 C 13.164411 8.0490257 13.481163 8.1104189 13.787109 8.203125 C 13.972383 6.9275578 14 5.3582835 14 3.2851562 L 14 2.9667969 L 8 1 z " /><path
     class="error"
     d="m 12.5,8.997 a 3.5,3.5 0 1 0 0,7 3.5,3.5 0 0 0 0,-7 z m -0.5,1 h 1 v 3 h -1 z m 0,4 h 1 v 1 h -1 z"
     overflow="visible"
     style="color:#bebebe;overflow:visible;fill:#c6262e;marker:none"
     id="path2" /></svg>
