<?xml version="1.0" encoding="UTF-8" standalone="no"?>
<svg
   height="16"
   width="16"
   version="1.1"
   id="svg6"
   xmlns="http://www.w3.org/2000/svg"
   xmlns:svg="http://www.w3.org/2000/svg">
  <defs
     id="defs10" />
  <path
     id="path479"
     style="fill:#555761;stroke-width:0.257199;-inkscape-stroke:none;stop-color:#000000"
     d="M 8.0859375 7.0917969 C 7.8324296 7.0887667 7.4217218 7.1111123 7.1699219 7.140625 C 5.736411 7.3086802 4.3872601 7.9089626 3.3027344 8.8613281 C 3.1122354 9.028614 3.1136689 9.3206998 3.2929688 9.5 L 4.2832031 10.492188 C 4.4625032 10.671487 4.7508102 10.666442 4.9453125 10.503906 C 5.3559105 10.1608 5.8218654 9.8906811 6.3222656 9.7011719 C 6.5593046 9.6114033 6.9569475 9.5041993 7.2070312 9.4628906 C 8.5787948 9.2363041 9.983725 9.6168727 11.052734 10.505859 C 11.247627 10.667931 11.537497 10.67149 11.716797 10.492188 L 12.707031 9.5 C 12.886332 9.3206998 12.887757 9.0286258 12.697266 8.8613281 C 11.420806 7.7402865 9.784667 7.111869 8.0859375 7.0917969 z M 8 11.253906 C 7.3928815 11.253917 6.7865801 11.442077 6.2734375 11.816406 C 6.0687882 11.965694 6.0706987 12.260152 6.25 12.439453 L 7.6757812 13.865234 A 0.45912758 0.45912758 0 0 0 8.3242188 13.865234 L 9.75 12.439453 C 9.9292998 12.260152 9.9312617 11.965722 9.7265625 11.816406 C 9.2134062 11.442096 8.6071181 11.253896 8 11.253906 z " />
  <path
     style="fill:#555761;stroke-width:0.257199;-inkscape-stroke:none;stop-color:#000000;opacity:0.5"
     d="M 7.8726644,3.0007349 C 7.6191286,3.0036449 7.2086484,3.0255039 6.9562026,3.0491579 4.5174563,3.2776759 2.2205139,4.3003443 0.41901529,5.959955 0.23253411,6.1317488 0.23254108,6.4245095 0.41184329,6.6038098 L 1.3785221,7.5704884 c 0.1793003,0.1793004 0.4682915,0.1771608 0.6564088,0.00716 3.3825842,-3.0565615 8.5475601,-3.056565 11.9301421,0 0.188114,0.1699838 0.477108,0.172126 0.65641,-0.00716 L 15.58816,6.6038102 C 15.76746,6.42451 15.767463,6.1317535 15.580985,5.9599556 13.482869,4.0269999 10.725265,2.9680449 7.8726644,3.0007349 Z"
     id="path400-7-5-3-5-62-7" />
</svg>
