<?xml version="1.0" encoding="UTF-8" standalone="no"?>
<svg
   height="16"
   width="16"
   version="1.1"
   id="svg6"
   xmlns="http://www.w3.org/2000/svg"
   xmlns:svg="http://www.w3.org/2000/svg">
  <defs
     id="defs10" />
  <path
     id="path492-3-56"
     style="font-variation-settings:normal;vector-effect:none;fill:#555761;fill-opacity:1;stroke:none;stroke-width:4;stroke-linecap:round;stroke-linejoin:round;stroke-miterlimit:4;stroke-dasharray:none;stroke-dashoffset:0;stroke-opacity:1;-inkscape-stroke:none;stop-color:#000000"
     d="M 2.5351562,1.5 A 0.75,0.75 0 0 0 1.8984375,1.8574219 l -0.00391,-0.00195 A 10.4875,10.4875 0 0 0 0.546875,7 10.4875,10.4875 0 0 0 1.8945312,12.144531 l 0.00391,-0.002 A 0.75,0.75 0 0 0 2.5351562,12.5 a 0.75,0.75 0 0 0 0.75,-0.75 A 0.75,0.75 0 0 0 3.203125,11.408203 8.9875002,8.9875002 0 0 1 2.0449219,7 8.9875002,8.9875002 0 0 1 3.203125,2.5917969 0.75,0.75 0 0 0 3.2851562,2.25 a 0.75,0.75 0 0 0 -0.75,-0.75 z m 10.9296878,0 a 0.75,0.75 0 0 0 -0.75,0.75 0.75,0.75 0 0 0 0.08203,0.3417969 A 8.9875002,8.9875002 0 0 1 13.955078,7 8.9875002,8.9875002 0 0 1 12.796875,11.408203 0.75,0.75 0 0 0 12.714844,11.75 a 0.75,0.75 0 0 0 0.75,0.75 0.75,0.75 0 0 0 0.636718,-0.357422 l 0.002,0.002 A 10.4875,10.4875 0 0 0 15.453125,7 10.4875,10.4875 0 0 0 14.105469,1.8554687 l -0.0039,0.00195 A 0.75,0.75 0 0 0 13.464844,1.5 Z M 4.7011719,3 A 0.75,0.75 0 0 0 4.1015625,3.2988281 L 4.09375,3.2949219 A 7,7 0 0 0 3.0332031,7 7,7 0 0 0 4.09375,10.705078 l 0.00781,-0.0039 A 0.75,0.75 0 0 0 4.703125,11 a 0.75,0.75 0 0 0 0.75,-0.75 0.75,0.75 0 0 0 -0.085937,-0.3398438 l 0.00391,-0.00195 A 5.4958401,5.4958401 0 0 1 4.5371094,7 5.4958401,5.4958401 0 0 1 5.3710938,4.0917969 l -0.00391,-0.00195 A 0.75,0.75 0 0 0 5.4511719,3.75 0.75,0.75 0 0 0 4.7011719,3 Z m 6.5976561,0 a 0.75,0.75 0 0 0 -0.75,0.75 0.75,0.75 0 0 0 0.08398,0.3398438 l -0.0039,0.00195 A 5.4958401,5.4958401 0 0 1 11.462891,7 5.4958401,5.4958401 0 0 1 10.628906,9.9082031 l 0.002,0.00195 A 0.75,0.75 0 0 0 10.546875,10.25 a 0.75,0.75 0 0 0 0.75,0.75 0.75,0.75 0 0 0 0.601563,-0.298828 l 0.0078,0.0039 A 7,7 0 0 0 12.966797,7 7,7 0 0 0 11.90625,3.2949219 l -0.0078,0.00391 A 0.75,0.75 0 0 0 11.298828,3 Z M 7.9667969,5 a 2,2 0 0 0 -2,2 2,2 0 0 0 1,1.7265625 V 15 c 0,0.553999 0.4460005,1 1,1 0.5539994,0 1,-0.446001 1,-1 V 8.7246094 a 2,2 0 0 0 1,-1.7246094 2,2 0 0 0 -2,-2 z" />
</svg>
