<?xml version="1.0" encoding="UTF-8" standalone="no"?>
<svg
   height="16"
   width="16"
   version="1.1"
   id="svg6"
   xml:space="preserve"
   xmlns="http://www.w3.org/2000/svg"
   xmlns:svg="http://www.w3.org/2000/svg"><defs
     id="defs10" /><path
     id="path8117"
     style="color:#000000;font-style:normal;font-variant:normal;font-weight:normal;font-stretch:normal;font-size:medium;line-height:normal;font-family:sans-serif;font-variation-settings:normal;text-indent:0;text-align:start;text-decoration:none;text-decoration-line:none;text-decoration-style:solid;text-decoration-color:#000000;letter-spacing:normal;word-spacing:normal;text-transform:none;writing-mode:lr-tb;direction:ltr;baseline-shift:baseline;text-anchor:start;white-space:normal;clip-rule:nonzero;display:inline;overflow:visible;visibility:visible;opacity:1;isolation:auto;mix-blend-mode:normal;color-interpolation:sRGB;color-interpolation-filters:linearRGB;solid-color:#000000;solid-opacity:1;vector-effect:none;fill:#555761;fill-opacity:1;fill-rule:nonzero;stroke:none;stroke-width:4;stroke-linecap:round;stroke-linejoin:round;stroke-miterlimit:4;stroke-dasharray:none;stroke-dashoffset:0;stroke-opacity:1;-inkscape-stroke:none;marker:none;color-rendering:auto;image-rendering:auto;shape-rendering:auto;text-rendering:auto;enable-background:accumulate;stop-color:#000000"
     d="M 8 1 L 2 2.9667969 L 2 3.2851562 C 2 6.8154094 2.0789857 8.8923064 2.8828125 10.527344 C 3.6866393 12.16238 5.1737324 13.371271 7.7851562 14.882812 L 8 15.005859 L 8.2148438 14.882812 C 10.826267 13.371271 12.31336 12.16238 13.117188 10.527344 C 13.921015 8.8923064 14 6.8154094 14 3.2851562 L 14 2.9667969 L 8 1 z M 8 2 L 13 3.8066406 L 13 4.0722656 C 13 7.0141432 12.93548 8.7448907 12.265625 10.107422 C 11.59577 11.469954 10.353921 12.625148 8.1777344 13.884766 L 8 13.988281 L 7.8222656 13.884766 C 5.646079 12.625148 4.4042305 11.469954 3.734375 10.107422 C 3.0645193 8.7448907 3 7.0141432 3 4.0722656 L 3 3.8066406 L 8 2 z M 8 4 C 6.8954381 4 6 4.8954381 6 6 C 6 6.8286632 6.4968465 7.5365111 7.2148438 7.8398438 L 6 11 L 10 11 L 8.7851562 7.8398438 C 9.5234865 7.5273781 10.002947 6.8017232 10 6 C 10 4.8954381 9.1045619 4 8 4 z " /></svg>
