<?xml version="1.0" encoding="UTF-8" standalone="no"?>
<svg
   height="16"
   width="16"
   version="1.1"
   id="svg6"
   xmlns="http://www.w3.org/2000/svg"
   xmlns:svg="http://www.w3.org/2000/svg">
  <defs
     id="defs10" />
  <path
     id="path492-3-56"
     style="font-variation-settings:normal;vector-effect:none;fill:#555761;fill-opacity:1;stroke:none;stroke-width:4;stroke-linecap:round;stroke-linejoin:round;stroke-miterlimit:4;stroke-dasharray:none;stroke-dashoffset:0;stroke-opacity:1;-inkscape-stroke:none;stop-color:#000000;opacity:0.5"
     d="M 2.5351562 1.5 A 0.75 0.75 0 0 0 1.8984375 1.8574219 L 1.8945312 1.8554688 A 10.4875 10.4875 0 0 0 0.546875 7 A 10.4875 10.4875 0 0 0 1.8945312 12.144531 L 1.8984375 12.142578 A 0.75 0.75 0 0 0 2.5351562 12.5 A 0.75 0.75 0 0 0 3.2851562 11.75 A 0.75 0.75 0 0 0 3.203125 11.408203 A 8.9875002 8.9875002 0 0 1 2.0449219 7 A 8.9875002 8.9875002 0 0 1 3.203125 2.5917969 A 0.75 0.75 0 0 0 3.2851562 2.25 A 0.75 0.75 0 0 0 2.5351562 1.5 z M 13.464844 1.5 A 0.75 0.75 0 0 0 12.714844 2.25 A 0.75 0.75 0 0 0 12.796875 2.5917969 A 8.9875002 8.9875002 0 0 1 13.955078 7 A 8.9875002 8.9875002 0 0 1 13.865234 8.2285156 C 14.367045 8.3902934 14.839271 8.6381964 15.259766 8.9609375 A 10.4875 10.4875 0 0 0 15.453125 7 A 10.4875 10.4875 0 0 0 14.105469 1.8554688 L 14.101562 1.8574219 A 0.75 0.75 0 0 0 13.464844 1.5 z M 4.7011719 3 A 0.75 0.75 0 0 0 4.1015625 3.2988281 L 4.09375 3.2949219 A 7 7 0 0 0 3.0332031 7 A 7 7 0 0 0 4.09375 10.705078 L 4.1015625 10.701172 A 0.75 0.75 0 0 0 4.703125 11 A 0.75 0.75 0 0 0 5.453125 10.25 A 0.75 0.75 0 0 0 5.3671875 9.9101562 L 5.3710938 9.9082031 A 5.4958401 5.4958401 0 0 1 4.5371094 7 A 5.4958401 5.4958401 0 0 1 5.3710938 4.0917969 L 5.3671875 4.0898438 A 0.75 0.75 0 0 0 5.4511719 3.75 A 0.75 0.75 0 0 0 4.7011719 3 z M 11.298828 3 A 0.75 0.75 0 0 0 10.548828 3.75 A 0.75 0.75 0 0 0 10.632812 4.0898438 L 10.628906 4.0917969 A 5.4958401 5.4958401 0 0 1 11.462891 7 A 5.4958401 5.4958401 0 0 1 11.322266 8.171875 C 11.662395 8.0766171 12.012728 8.0177824 12.367188 8.0058594 C 12.543476 8.0024956 12.718349 8.0104997 12.892578 8.0273438 A 7 7 0 0 0 12.966797 7 A 7 7 0 0 0 11.90625 3.2949219 L 11.898438 3.2988281 A 0.75 0.75 0 0 0 11.298828 3 z M 7.9667969 5 A 2 2 0 0 0 5.9667969 7 A 2 2 0 0 0 6.9667969 8.7265625 L 6.9667969 15 C 6.9667969 15.553998 7.4127979 16 7.9667969 16 C 8.4429207 16 8.8374311 15.668899 8.9394531 15.224609 C 7.9010932 13.890443 7.7122071 11.957424 8.5058594 10.455078 C 8.6337358 10.196357 8.7899621 9.9553559 8.9667969 9.7304688 L 8.9667969 8.7246094 A 2 2 0 0 0 9.9667969 7 A 2 2 0 0 0 7.9667969 5 z " />
  <path
     class="error"
     d="m 12.5,8.997 a 3.5,3.5 0 1 0 0,7 3.5,3.5 0 0 0 0,-7 z m -0.5,1 h 1 v 3 h -1 z m 0,4 h 1 v 1 h -1 z"
     overflow="visible"
     style="color:#bebebe;overflow:visible;fill:#c6262e;marker:none"
     id="path2" />
</svg>
