<?xml version="1.0" encoding="UTF-8" standalone="no"?>
<svg
   height="24"
   width="24"
   version="1.1"
   id="svg8"
   xmlns="http://www.w3.org/2000/svg"
   xmlns:svg="http://www.w3.org/2000/svg"
   xmlns:rdf="http://www.w3.org/1999/02/22-rdf-syntax-ns#"
   xmlns:cc="http://creativecommons.org/ns#"
   xmlns:dc="http://purl.org/dc/elements/1.1/">
  <metadata
     id="metadata14">
    <rdf:RDF>
      <cc:Work
         rdf:about="">
        <dc:format>image/svg+xml</dc:format>
        <dc:type
           rdf:resource="http://purl.org/dc/dcmitype/StillImage" />
      </cc:Work>
    </rdf:RDF>
  </metadata>
  <defs
     id="defs12" />
  <path
     id="path4"
     style="font-variation-settings:normal;opacity:0.35;vector-effect:none;fill:#555761;fill-opacity:1;stroke-width:1;stroke-linecap:butt;stroke-linejoin:miter;stroke-miterlimit:4;stroke-dasharray:none;stroke-dashoffset:0;stroke-opacity:1;-inkscape-stroke:none;marker:none;stop-color:#000000;stop-opacity:1"
     d="M 6.0019531,7 C 5.6542888,6.9990779 5.3310965,7.1787935 5.1484375,7.4746094 L 2.2539062,11.335938 C 2.0912322,11.518215 2.0009136,11.753738 2,11.998047 c -1.558e-4,0.219494 0.071909,0.432942 0.2050781,0.607422 0.00947,0.0126 0.01924,0.02497 0.029297,0.03711 l 2.9375,3.917969 C 5.35751,16.834796 5.6668788,16.999354 5.9980469,17 6.5503321,17.00108 6.9989224,16.554238 7,16.001953 6.999864,15.787363 6.9307023,15.578509 6.8027344,15.40625 l 0.00195,-0.002 -2.5507813,-3.402344 2.5507813,-3.4023436 -0.00391,-0.00195 C 6.9294459,8.4256399 6.9992995,8.2167641 7,8.0019531 7.0010797,7.4496679 6.5542383,7.0010776 6.0019531,7 Z M 17.998047,7 C 17.445762,7.0010776 16.99892,7.4496679 17,8.0019531 c 7.01e-4,0.214811 0.07055,0.4236868 0.199219,0.5957031 l -0.0039,0.00195 2.550782,3.4023436 -2.550782,3.402344 0.002,0.002 C 17.069298,15.578509 17.000136,15.787363 17,16.001953 c 0.0011,0.552285 0.449668,0.999127 1.001953,0.998047 0.331168,-6.46e-4 0.640537,-0.165204 0.826172,-0.439453 l 2.9375,-3.917969 c 0.01006,-0.01214 0.01983,-0.02451 0.0293,-0.03711 0.133169,-0.17448 0.205234,-0.387928 0.205078,-0.607422 -9.14e-4,-0.244309 -0.09123,-0.479832 -0.253906,-0.662109 L 18.851562,7.4746094 C 18.668903,7.1787937 18.345711,6.9990781 17.998047,7 Z" />
  <path
     color="#bebebe"
     d="m 11.848,8.969 c 1.458,-0.108 2.892,0.99 3.142,2.435 0.13,0.846 -0.014,1.804 -0.64,2.435 -0.382,0.431 -0.923,0.753 -1.314,1.13 0.02,0.689 -0.807,1.239 -1.425,0.897 -0.464,-0.216 -0.682,-0.779 -0.536,-1.261 0.157,-0.784 0.801,-1.312 1.396,-1.78 0.261,-0.248 0.61,-0.514 0.565,-0.919 -0.01,-0.602 -0.64,-1.06 -1.217,-0.919 -0.463,0.067 -0.83,0.512 -0.783,0.982 h -2 c -0.095,-1.17 0.65,-2.32 1.733,-2.752 0.341,-0.145 0.709,-0.228 1.08,-0.248 z m 0.188,8 c 0.649,-0.025 1.171,0.685 0.955,1.297 -0.17,0.623 -0.993,0.913 -1.514,0.532 -0.547,-0.34 -0.59,-1.21 -0.077,-1.6 a 0.998,0.998 0 0 1 0.636,-0.23 z"
     fill="#666666"
     overflow="visible"
     style="marker:none;fill:#555761"
     id="path133" />
</svg>
