<?xml version="1.0" encoding="UTF-8" standalone="no"?>
<svg
   height="24"
   width="24"
   version="1.1"
   id="svg4"
   xml:space="preserve"
   xmlns="http://www.w3.org/2000/svg"
   xmlns:svg="http://www.w3.org/2000/svg"><defs
     id="defs8" /><path
     id="rect421"
     style="fill:#555761;stroke-width:1.00101;-inkscape-stroke:none;stop-color:#000000"
     d="M 18 6 C 17.446001 6 17 6.4460006 17 7 L 17 17 C 17 17.553999 17.446001 18 18 18 L 19 18 C 19.553999 18 20 17.553999 20 17 L 20 7 C 20 6.4460006 19.553999 6 19 6 L 18 6 z M 14 9 C 13.446001 9 13 9.4460006 13 10 L 13 17 C 13 17.553999 13.446001 18 14 18 L 15 18 C 15.553999 18 16 17.553999 16 17 L 16 10 C 16 9.4460006 15.553999 9 15 9 L 14 9 z M 10 12 C 9.4460006 12 9 12.446001 9 13 L 9 17 C 9 17.553999 9.4460006 18 10 18 L 11 18 C 11.553999 18 12 17.553999 12 17 L 12 13 C 12 12.446001 11.553999 12 11 12 L 10 12 z M 6 15 C 5.4460006 15 5 15.446001 5 16 L 5 17 C 5 17.553999 5.4460006 18 6 18 L 7 18 C 7.5539994 18 8 17.553999 8 17 L 8 16 C 8 15.446001 7.5539994 15 7 15 L 6 15 z " /></svg>
