<?xml version="1.0" encoding="UTF-8" standalone="no"?>
<svg
   height="24"
   width="24"
   version="1.1"
   id="svg4"
   xml:space="preserve"
   xmlns="http://www.w3.org/2000/svg"
   xmlns:svg="http://www.w3.org/2000/svg"><defs
     id="defs8" /><path
     id="rect421"
     style="fill:#555761;stroke-width:1.00101;-inkscape-stroke:none;stop-color:#000000;opacity:0.5"
     d="M 18 6 C 17.446002 6 17 6.4460012 17 7 L 17 17 C 17 17.553998 17.446002 18 18 18 L 19 18 C 19.553998 18 20 17.553998 20 17 L 20 7 C 20 6.4460012 19.553998 6 19 6 L 18 6 z M 14.705078 9 C 14.863306 9.1413616 15.011191 9.294366 15.144531 9.4589844 C 15.627161 10.013361 15.908125 10.701463 16 11.416016 L 16 10 C 16 9.4460012 15.553998 9 15 9 L 14.705078 9 z M 16 12.472656 C 15.863472 13.529349 15.323103 14.531513 14.408203 15.134766 C 13.829408 15.394531 13.859022 16.120018 13.345703 16.457031 C 13.649175 16.739606 13.886026 17.098596 13.978516 17.505859 C 14.02785 17.67143 14.049517 17.837138 14.048828 18 L 15 18 C 15.553998 18 16 17.553998 16 17 L 16 12.472656 z M 9.0019531 12.96875 C 9.0016255 12.979324 9 12.989343 9 13 L 9 17 C 9 17.553998 9.4460012 18 10 18 L 10.048828 18 C 10.029072 17.42258 10.239194 16.841976 10.722656 16.460938 C 9.6571934 15.564344 9.9608918 13.894581 10.828125 12.970703 C 10.228496 12.966181 9.6097001 12.96986 9.0019531 12.96875 z M 6 15 C 5.4460012 15 5 15.446002 5 16 L 5 17 C 5 17.553998 5.4460012 18 6 18 L 7 18 C 7.5539988 18 8 17.553998 8 17 L 8 16 C 8 15.446002 7.5539988 15 7 15 L 6 15 z " /><path
     color="#bebebe"
     d="m 11.848,8.969 c 1.458,-0.108 2.892,0.99 3.142,2.435 0.13,0.846 -0.014,1.804 -0.64,2.435 -0.382,0.431 -0.923,0.753 -1.314,1.13 0.02,0.689 -0.807,1.239 -1.425,0.897 -0.464,-0.216 -0.682,-0.779 -0.536,-1.261 0.157,-0.784 0.801,-1.312 1.396,-1.78 0.261,-0.248 0.61,-0.514 0.565,-0.919 -0.01,-0.602 -0.64,-1.06 -1.217,-0.919 -0.463,0.067 -0.83,0.512 -0.783,0.982 h -2 c -0.095,-1.17 0.65,-2.32 1.733,-2.752 0.341,-0.145 0.709,-0.228 1.08,-0.248 z m 0.188,8 c 0.649,-0.025 1.171,0.685 0.955,1.297 -0.17,0.623 -0.993,0.913 -1.514,0.532 -0.547,-0.34 -0.59,-1.21 -0.077,-1.6 a 0.998,0.998 0 0 1 0.636,-0.23 z"
     fill="#666666"
     overflow="visible"
     style="fill:#555761;marker:none"
     id="path133" /></svg>
