<?xml version="1.0" encoding="UTF-8" standalone="no"?>
<svg
   height="24"
   width="24"
   version="1.1"
   id="svg6"
   xml:space="preserve"
   xmlns="http://www.w3.org/2000/svg"
   xmlns:svg="http://www.w3.org/2000/svg"><defs
     id="defs10" /><path
     id="path1919"
     style="fill:#555761;stroke-width:0.280095;-inkscape-stroke:none;stop-color:#000000;opacity:0.5"
     d="M 11.861328 6 C 11.585222 6.00316 11.1382 6.0269744 10.863281 6.0527344 C 8.2074415 6.3015946 5.7060065 7.4153095 3.7441406 9.2226562 C 3.5410591 9.4097431 3.5410642 9.7285668 3.7363281 9.9238281 L 4.7890625 10.976562 C 4.9843239 11.171824 5.2990432 11.169507 5.5039062 10.984375 C 6.6808909 9.9208315 8.0572293 9.2003208 9.5039062 8.8164062 C 10.165927 8.2915698 10.989769 7.9699419 11.849609 7.96875 C 12.791003 7.9161678 13.735582 8.2375556 14.480469 8.8125 C 15.932849 9.1953447 17.314887 9.9170151 18.496094 10.984375 C 18.700954 11.169491 19.015675 11.171811 19.210938 10.976562 L 20.263672 9.9238281 C 20.458934 9.7285668 20.458937 9.4097476 20.255859 9.2226562 C 17.970974 7.1176317 14.967865 5.9643999 11.861328 6 z M 8.0292969 11.550781 C 7.6253084 11.791876 7.2416175 12.069447 6.8847656 12.382812 C 6.6773084 12.56499 6.6777859 12.882863 6.8730469 13.078125 L 7.953125 14.158203 C 8.1483863 14.353465 8.4620111 14.348878 8.6738281 14.171875 C 9.1209775 13.798222 9.6288832 13.503255 10.173828 13.296875 C 10.311181 13.244858 10.497931 13.187841 10.683594 13.138672 C 10.729801 13.080578 10.777996 13.024106 10.828125 12.970703 C 10.218235 12.966103 9.5884405 12.97005 8.9707031 12.96875 C 8.154511 13.170326 7.9070168 12.781697 8.0351562 12.003906 C 8.0226454 11.851502 8.021179 11.700398 8.0292969 11.550781 z M 16.017578 11.578125 C 16.098209 12.494285 15.870167 13.438912 15.353516 14.195312 C 15.56465 14.34925 15.86027 14.344813 16.046875 14.158203 L 17.126953 13.078125 C 17.322215 12.882863 17.322684 12.565003 17.115234 12.382812 C 16.771684 12.081092 16.404062 11.81247 16.017578 11.578125 z M 10.142578 15.583984 C 10.134909 15.589475 10.126772 15.594043 10.119141 15.599609 C 9.8962728 15.762187 9.8984877 16.084035 10.09375 16.279297 L 10.494141 16.679688 C 10.562508 16.601479 10.637636 16.527946 10.722656 16.460938 C 10.431795 16.216176 10.245759 15.91308 10.142578 15.583984 z M 13.921875 15.636719 C 13.762432 15.929367 13.646546 16.259516 13.345703 16.457031 C 13.411497 16.518295 13.474464 16.584183 13.533203 16.652344 L 13.90625 16.279297 C 14.087944 16.097603 14.100331 15.807332 13.921875 15.636719 z " /><path
     color="#bebebe"
     d="m 11.848,8.969 c 1.458,-0.108 2.892,0.99 3.142,2.435 0.13,0.846 -0.014,1.804 -0.64,2.435 -0.382,0.431 -0.923,0.753 -1.314,1.13 0.02,0.689 -0.807,1.239 -1.425,0.897 -0.464,-0.216 -0.682,-0.779 -0.536,-1.261 0.157,-0.784 0.801,-1.312 1.396,-1.78 0.261,-0.248 0.61,-0.514 0.565,-0.919 -0.01,-0.602 -0.64,-1.06 -1.217,-0.919 -0.463,0.067 -0.83,0.512 -0.783,0.982 h -2 c -0.095,-1.17 0.65,-2.32 1.733,-2.752 0.341,-0.145 0.709,-0.228 1.08,-0.248 z m 0.188,8 c 0.649,-0.025 1.171,0.685 0.955,1.297 -0.17,0.623 -0.993,0.913 -1.514,0.532 -0.547,-0.34 -0.59,-1.21 -0.077,-1.6 a 0.998,0.998 0 0 1 0.636,-0.23 z"
     fill="#666666"
     overflow="visible"
     style="marker:none;fill:#555761"
     id="path132" /></svg>
