<?xml version="1.0" encoding="UTF-8" standalone="no"?>
<svg
   height="24"
   width="24"
   version="1.1"
   id="svg4"
   xml:space="preserve"
   xmlns="http://www.w3.org/2000/svg"
   xmlns:svg="http://www.w3.org/2000/svg"><defs
     id="defs8" /><path
     id="rect421"
     style="fill:#555761;stroke-width:1.00101;-inkscape-stroke:none;stop-color:#000000;opacity:0.5"
     d="M 18 6 C 17.446002 6 17 6.4460012 17 7 L 17 17 C 17 17.01663 17.001159 17.032402 17.001953 17.048828 L 17.951172 17.998047 C 17.967598 17.998841 17.98337 18 18 18 L 19 18 C 19.553998 18 20 17.553998 20 17 L 20 7 C 20 6.4460012 19.553998 6 19 6 L 18 6 z M 14 9 C 13.446002 9 13 9.4460012 13 10 L 13 13.046875 L 16 16.046875 L 16 10 C 16 9.4460012 15.553998 9 15 9 L 14 9 z M 10 12 C 9.4460012 12 9 12.446002 9 13 L 9 17 C 9 17.553998 9.4460012 18 10 18 L 11 18 C 11.553998 18 12 17.553998 12 17 L 12 13.8125 L 10.1875 12 L 10 12 z M 13 14.8125 L 13 17 C 13 17.553998 13.446002 18 14 18 L 15 18 C 15.325158 18 15.610559 17.84441 15.792969 17.605469 L 13 14.8125 z M 6 15 C 5.4460012 15 5 15.446002 5 16 L 5 17 C 5 17.553998 5.4460012 18 6 18 L 7 18 C 7.5539988 18 8 17.553998 8 17 L 8 16 C 8 15.446002 7.5539988 15 7 15 L 6 15 z " /><rect
     style="font-variation-settings:normal;vector-effect:none;fill:#555761;fill-opacity:1;stroke:none;stroke-width:0.992001;stroke-linecap:square;stroke-linejoin:miter;stroke-miterlimit:4;stroke-dasharray:none;stroke-dashoffset:0;stroke-opacity:1;-inkscape-stroke:none;marker:none;stop-color:#000000"
     id="rect2480-1-6"
     width="1.248"
     height="19.799999"
     x="-0.16605952"
     y="7.5239558"
     rx="0.5"
     ry="0.5"
     transform="rotate(-45)" /></svg>
