<?xml version="1.0" encoding="UTF-8" standalone="no"?>
<svg
   height="24"
   width="24"
   version="1.1"
   id="svg6"
   xml:space="preserve"
   xmlns="http://www.w3.org/2000/svg"
   xmlns:svg="http://www.w3.org/2000/svg"><defs
     id="defs10" /><path
     id="path1919"
     style="fill:#555761;stroke-width:0.280095;-inkscape-stroke:none;stop-color:#000000"
     d="M 12.09375 10.455078 C 11.817674 10.451778 11.369919 10.475673 11.095703 10.507812 C 9.5345784 10.690828 8.0658378 11.345666 6.8847656 12.382812 C 6.677308 12.56499 6.6777855 12.882863 6.8730469 13.078125 L 7.953125 14.158203 C 8.1483867 14.353465 8.4620107 14.348878 8.6738281 14.171875 C 9.1209783 13.798222 9.6288818 13.503255 10.173828 13.296875 C 10.431969 13.199115 10.864372 13.082095 11.136719 13.037109 C 12.630599 12.790352 14.160044 13.205703 15.324219 14.173828 C 15.536461 14.350328 15.851613 14.35347 16.046875 14.158203 L 17.126953 13.078125 C 17.322215 12.882863 17.322684 12.565003 17.115234 12.382812 C 15.725142 11.161974 13.943704 10.476937 12.09375 10.455078 z M 12 14.988281 C 11.338835 14.988293 10.677964 15.191956 10.119141 15.599609 C 9.896273 15.762187 9.8984875 16.084035 10.09375 16.279297 L 11.646484 17.832031 A 0.5 0.5 0 0 0 12.353516 17.832031 L 13.90625 16.279297 C 14.101512 16.084035 14.103782 15.762217 13.880859 15.599609 C 13.322022 15.191978 12.661165 14.98827 12 14.988281 z " /><path
     style="fill:#555761;stroke-width:0.280095;-inkscape-stroke:none;stop-color:#000000;opacity:0.5"
     d="m 11.861328,6 c -0.276106,0.00316 -0.723128,0.026974 -0.998047,0.052734 -2.6558482,0.2488611 -5.1572688,1.3625694 -7.1191404,3.1699218 -0.2030821,0.1870872 -0.2030745,0.50591 -0.00781,0.7011719 l 1.0527344,1.0527339 c 0.195262,0.195262 0.5099798,0.192932 0.7148437,0.0078 3.6837083,-3.3286621 9.3084818,-3.3286659 12.9921878,0 0.20486,0.185116 0.519581,0.187449 0.714844,-0.0078 L 20.263672,9.9238281 C 20.458934,9.7285662 20.458937,9.4097479 20.255859,9.2226562 17.970965,7.1176251 14.967874,5.9643999 11.861328,6 Z"
     id="path400-7-5-3-5-62-7" /></svg>
