<?xml version="1.0" encoding="UTF-8" standalone="no"?>
<svg
   height="24"
   width="24"
   version="1.1"
   id="svg6"
   xml:space="preserve"
   xmlns="http://www.w3.org/2000/svg"
   xmlns:svg="http://www.w3.org/2000/svg"><defs
     id="defs10" /><path
     id="path1919"
     style="fill:#555761;stroke-width:0.280095;-inkscape-stroke:none;stop-color:#000000;opacity:0.5"
     d="M 11.861328 6 C 11.585222 6.00316 11.1382 6.0269744 10.863281 6.0527344 C 9.5330232 6.1773836 8.2414908 6.5195568 7.0371094 7.0566406 L 8.9550781 8.9765625 C 12.174445 7.9150635 15.839728 8.5840337 18.496094 10.984375 C 18.700954 11.169491 19.015675 11.171811 19.210938 10.976562 L 20.263672 9.9238281 C 20.458934 9.7285668 20.458937 9.4097476 20.255859 9.2226562 C 17.970974 7.1176317 14.967865 5.9643999 11.861328 6 z M 5.8710938 7.65625 C 5.1123629 8.0979374 4.3974332 8.6208178 3.7441406 9.2226562 C 3.5410591 9.4097431 3.5410642 9.7285668 3.7363281 9.9238281 L 4.7890625 10.976562 C 4.9843239 11.171824 5.2990432 11.169507 5.5039062 10.984375 C 6.17934 10.374041 6.9211044 9.8767496 7.703125 9.4902344 L 5.8710938 7.65625 z M 12.09375 10.455078 C 11.817674 10.451778 11.369919 10.475675 11.095703 10.507812 C 10.918392 10.528599 10.743001 10.555062 10.568359 10.587891 L 13.058594 13.080078 C 13.882515 13.253155 14.662654 13.623672 15.324219 14.173828 C 15.536461 14.350328 15.851613 14.35347 16.046875 14.158203 L 17.126953 13.078125 C 17.322215 12.882863 17.322684 12.565003 17.115234 12.382812 C 15.725146 11.161978 13.9437 10.476937 12.09375 10.455078 z M 9.1953125 10.980469 C 8.3534061 11.307383 7.5708187 11.780363 6.8847656 12.382812 C 6.6773084 12.56499 6.6777859 12.882863 6.8730469 13.078125 L 7.953125 14.158203 C 8.1483863 14.353465 8.4620111 14.348878 8.6738281 14.171875 C 9.1209775 13.798222 9.6288832 13.503255 10.173828 13.296875 C 10.431969 13.199115 10.864372 13.082095 11.136719 13.037109 C 11.169779 13.031649 11.203237 13.028251 11.236328 13.023438 L 9.1953125 10.980469 z M 12 14.988281 C 11.338836 14.988293 10.677963 15.191957 10.119141 15.599609 C 9.8962728 15.762187 9.8984877 16.084035 10.09375 16.279297 L 11.646484 17.832031 A 0.5 0.5 0 0 0 12.353516 17.832031 L 13.90625 16.279297 C 14.032149 16.153398 14.0764 15.974838 14.033203 15.820312 L 13.679688 15.466797 C 13.166326 15.148891 12.583901 14.988272 12 14.988281 z " /><rect
     style="font-variation-settings:normal;vector-effect:none;fill:#555761;fill-opacity:1;stroke:none;stroke-width:0.992001;stroke-linecap:square;stroke-linejoin:miter;stroke-miterlimit:4;stroke-dasharray:none;stroke-dashoffset:0;stroke-opacity:1;-inkscape-stroke:none;marker:none;stop-color:#000000"
     id="rect2480-1-6"
     width="1.248"
     height="19.799999"
     x="-0.16605952"
     y="7.5239558"
     rx="0.5"
     ry="0.5"
     transform="rotate(-45)" /></svg>
