<?xml version="1.0" encoding="UTF-8" standalone="no"?>
<svg
   height="24"
   width="24"
   version="1.1"
   id="svg4"
   xml:space="preserve"
   xmlns="http://www.w3.org/2000/svg"
   xmlns:svg="http://www.w3.org/2000/svg"><defs
     id="defs8" /><path
     id="rect421"
     style="fill:#555761;stroke-width:1.00101;-inkscape-stroke:none;stop-color:#000000"
     d="M 14 9 C 13.446001 9 13 9.4460006 13 10 L 13 17 C 13 17.553999 13.446001 18 14 18 L 15 18 C 15.553999 18 16 17.553999 16 17 L 16 10 C 16 9.4460006 15.553999 9 15 9 L 14 9 z M 10 12 C 9.4460006 12 9 12.446001 9 13 L 9 17 C 9 17.553999 9.4460006 18 10 18 L 11 18 C 11.553999 18 12 17.553999 12 17 L 12 13 C 12 12.446001 11.553999 12 11 12 L 10 12 z M 6 15 C 5.4460006 15 5 15.446001 5 16 L 5 17 C 5 17.553999 5.4460006 18 6 18 L 7 18 C 7.5539994 18 8 17.553999 8 17 L 8 16 C 8 15.446001 7.5539994 15 7 15 L 6 15 z " /><path
     id="rect421-3-6-7"
     style="fill:#555761;stroke-width:2.00202;-inkscape-stroke:none;stop-color:#000000;opacity:0.5"
     d="M 18 6 C 17.446001 6 17 6.4460006 17 7 L 17 15.445312 C 17.077069 14.841873 17.344779 14.279619 17.984375 14.09375 C 17.950174 12.826719 18.81808 11.601266 20 11.167969 L 20 7 C 20 6.4460006 19.553999 6 19 6 L 18 6 z M 17 16.300781 L 17 17 C 17 17.050226 17.004639 17.098286 17.011719 17.146484 C 17.025164 16.858644 17.030758 16.57494 17 16.300781 z " /><path
     d="m 21,12 c -1.108,0 -2,0.91 -2,2.031 V 15 h -0.5 c 0,0 -0.5,0 -0.5,0.5 v 3 c 0,0 0,0.5 0.5,0.5 h 5 C 24,19 24,18.5 24,18.5 v -3 C 24,15 23.5,15 23.5,15 H 23 V 14.031 C 23,12.911 22.108,12 21,12 Z m 0,1 c 0.554,0 1,0.442 1,1 v 1 h -2 v -1 c 0,-0.558 0.446,-1 1,-1 z"
     overflow="visible"
     style="color:#000000;isolation:auto;mix-blend-mode:normal;fill:#666666;marker:none"
     id="path1871" /></svg>
