<?xml version="1.0" encoding="UTF-8" standalone="no"?>
<svg
   height="24"
   width="24"
   version="1.1"
   id="svg6"
   xml:space="preserve"
   xmlns="http://www.w3.org/2000/svg"
   xmlns:svg="http://www.w3.org/2000/svg"><defs
     id="defs10" /><path
     style="fill:#555761;stroke-width:0.280095;-inkscape-stroke:none;stop-color:#000000"
     d="m 12,14.988281 c -0.661166,1.2e-5 -1.322035,0.203674 -1.880859,0.611328 -0.2228678,0.162578 -0.2206527,0.484426 -0.02539,0.679688 l 1.552734,1.552734 a 0.5,0.5 0 0 0 0.707032,0 l 1.552734,-1.552734 c 0.195262,-0.195262 0.197533,-0.51708 -0.02539,-0.679688 C 13.322023,15.191977 12.661166,14.98827 12,14.988281 Z"
     id="path1919" /><path
     id="path1917"
     style="fill:#555761;stroke-width:0.280095;-inkscape-stroke:none;stop-color:#000000;opacity:0.5"
     d="M 11.861328 6 C 11.585222 6.00316 11.1382 6.0269744 10.863281 6.0527344 C 8.2074357 6.3015952 5.7060103 7.4153057 3.7441406 9.2226562 C 3.5410587 9.4097433 3.5410638 9.7285664 3.7363281 9.9238281 L 4.7890625 10.976562 C 4.9843243 11.171824 5.2990426 11.169507 5.5039062 10.984375 C 9.1876109 7.6557162 14.812391 7.6557124 18.496094 10.984375 C 18.700954 11.169491 19.015675 11.171811 19.210938 10.976562 L 20.263672 9.9238281 C 20.458934 9.7285664 20.458937 9.4097478 20.255859 9.2226562 C 17.970968 7.1176273 14.967871 5.9643999 11.861328 6 z M 12.09375 10.455078 C 11.817674 10.451778 11.369919 10.475673 11.095703 10.507812 C 9.5345784 10.690828 8.0658378 11.345666 6.8847656 12.382812 C 6.677308 12.56499 6.6777855 12.882863 6.8730469 13.078125 L 7.953125 14.158203 C 8.1483867 14.353465 8.4620107 14.348878 8.6738281 14.171875 C 9.1209783 13.798222 9.6288818 13.503255 10.173828 13.296875 C 10.431969 13.199115 10.864372 13.082095 11.136719 13.037109 C 12.630599 12.790352 14.160044 13.205703 15.324219 14.173828 C 15.536461 14.350328 15.851613 14.35347 16.046875 14.158203 L 17.126953 13.078125 C 17.322215 12.882863 17.322684 12.565003 17.115234 12.382812 C 15.725142 11.161974 13.943704 10.476937 12.09375 10.455078 z " /></svg>
