<?xml version="1.0" encoding="UTF-8" standalone="no"?>
<svg
   height="24"
   width="24"
   version="1.1"
   id="svg6"
   xml:space="preserve"
   xmlns="http://www.w3.org/2000/svg"
   xmlns:svg="http://www.w3.org/2000/svg"><defs
     id="defs10" /><path
     id="path400-7-5-3-5-62-7"
     style="fill:#555761;stroke-width:0.280095;-inkscape-stroke:none;stop-color:#000000"
     d="M 11.861328 6 C 11.585222 6.0031641 11.1382 6.0269737 10.863281 6.0527344 C 8.2074386 6.3015949 5.7060084 7.4153076 3.7441406 9.2226562 C 3.5410589 9.4097432 3.5410665 9.7285666 3.7363281 9.9238281 L 4.7890625 10.976562 C 4.9843241 11.171824 5.2990429 11.169494 5.5039062 10.984375 C 9.1876073 7.6557195 14.812394 7.6557157 18.496094 10.984375 C 18.700954 11.169491 19.015675 11.171824 19.210938 10.976562 L 20.263672 9.9238281 C 20.458934 9.7285666 20.458937 9.4097477 20.255859 9.2226562 C 17.970971 7.1176295 14.967868 5.9643999 11.861328 6 z M 12.09375 10.455078 C 11.817674 10.451816 11.369919 10.475667 11.095703 10.507812 C 9.5345801 10.690828 8.0658366 11.345668 6.8847656 12.382812 C 6.6773082 12.56499 6.6777854 12.882863 6.8730469 13.078125 L 7.953125 14.158203 C 8.1483865 14.353465 8.4620109 14.348876 8.6738281 14.171875 C 9.1209779 13.798222 9.6288825 13.503255 10.173828 13.296875 C 10.431969 13.199113 10.864372 13.082095 11.136719 13.037109 C 12.257128 12.852042 13.397356 13.039057 14.388672 13.552734 C 14.860906 12.728635 15.700645 12.109906 16.660156 12.015625 C 15.346301 11.026554 13.748024 10.474625 12.09375 10.455078 z M 17 13 C 15.892001 13 15 13.910251 15 15.03125 L 15 16 L 14.5 16 C 14.5 16 14 16 14 16.5 L 14 19.5 C 14 20 14.5 20 14.5 20 L 19.5 20 C 19.5 20 20 20 20 19.5 L 20 16.5 C 20 16 19.5 16 19.5 16 L 19 16 L 19 15.03125 C 19 13.911251 18.107999 13 17 13 z M 17 14 C 17.553999 14 18 14.442001 18 15 L 18 16 L 16 16 L 16 15 C 16 14.442001 16.446001 14 17 14 z M 12 14.988281 C 11.338836 14.988293 10.677963 15.191957 10.119141 15.599609 C 9.8962728 15.762187 9.8984887 16.084035 10.09375 16.279297 L 11.646484 17.832031 A 0.5 0.5 0 0 0 12.353516 17.832031 L 12.990234 17.195312 C 12.933206 16.552119 13.021774 15.790499 13.498047 15.363281 C 13.030586 15.114778 12.516259 14.988273 12 14.988281 z " /></svg>
