<?xml version="1.0" encoding="UTF-8" standalone="no"?>
<svg
   height="24"
   width="24"
   version="1.1"
   id="svg6"
   xml:space="preserve"
   xmlns="http://www.w3.org/2000/svg"
   xmlns:svg="http://www.w3.org/2000/svg"><defs
     id="defs10" /><path
     id="path1919"
     style="fill:#555761;stroke-width:0.280095;-inkscape-stroke:none;stop-color:#000000;opacity:0.5"
     d="M 11.861328 6 C 11.585222 6.00316 11.1382 6.0269744 10.863281 6.0527344 C 8.2074386 6.3015949 5.7060084 7.4153076 3.7441406 9.2226562 C 3.5410589 9.4097432 3.541064 9.7285666 3.7363281 9.9238281 L 4.7890625 10.976562 C 4.9843241 11.171824 5.2990429 11.169507 5.5039062 10.984375 C 9.1876073 7.6557195 14.812394 7.6557157 18.496094 10.984375 C 18.700954 11.169491 19.015675 11.171811 19.210938 10.976562 L 20.263672 9.9238281 C 20.458934 9.7285666 20.458937 9.4097477 20.255859 9.2226562 C 17.970971 7.1176295 14.967868 5.9643999 11.861328 6 z M 12.09375 10.455078 C 11.817674 10.451778 11.369919 10.475674 11.095703 10.507812 C 9.5345801 10.690828 8.0658366 11.345668 6.8847656 12.382812 C 6.6773082 12.56499 6.6777857 12.882863 6.8730469 13.078125 L 7.953125 14.158203 C 8.1483865 14.353465 8.4620109 14.348878 8.6738281 14.171875 C 9.1209779 13.798222 9.6288825 13.503255 10.173828 13.296875 C 10.431969 13.199115 10.864372 13.082095 11.136719 13.037109 C 12.630597 12.790353 14.160045 13.205704 15.324219 14.173828 C 15.536461 14.350328 15.851613 14.35347 16.046875 14.158203 L 17.126953 13.078125 C 17.322215 12.882863 17.322684 12.565003 17.115234 12.382812 C 15.725144 11.161976 13.943702 10.476937 12.09375 10.455078 z M 12 14.988281 C 11.338835 14.988293 10.677964 15.191956 10.119141 15.599609 C 9.896273 15.762187 9.8984875 16.084035 10.09375 16.279297 L 11.646484 17.832031 A 0.5 0.5 0 0 0 12.353516 17.832031 L 13.90625 16.279297 C 14.101512 16.084035 14.103782 15.762217 13.880859 15.599609 C 13.322022 15.191978 12.661165 14.98827 12 14.988281 z " /></svg>
