<?xml version="1.0" encoding="UTF-8" standalone="no"?>
<svg
   height="24"
   width="24"
   version="1.1"
   id="svg6"
   xml:space="preserve"
   xmlns="http://www.w3.org/2000/svg"
   xmlns:svg="http://www.w3.org/2000/svg"><defs
     id="defs10" /><path
     id="path534"
     style="fill:#555761;stroke-width:0.280095;-inkscape-stroke:none;stop-color:#000000;opacity:0.5"
     d="M 11.861328 6 C 11.585222 6.0031641 11.1382 6.0269737 10.863281 6.0527344 C 8.2074444 6.3015943 5.7060046 7.4153114 3.7441406 9.2226562 C 3.5410593 9.409743 3.5410669 9.728567 3.7363281 9.9238281 L 4.7890625 10.976562 C 4.9843237 11.171824 5.2990435 11.169507 5.5039062 10.984375 C 9.1876001 7.6557261 14.8124 7.6557223 18.496094 10.984375 C 18.700954 11.169491 19.015675 11.171811 19.210938 10.976562 L 20.263672 9.9238281 C 20.458934 9.728567 20.458937 9.4097475 20.255859 9.2226562 C 17.970977 7.1176339 14.967862 5.9643999 11.861328 6 z M 12.09375 10.455078 C 11.817674 10.451778 11.369919 10.475674 11.095703 10.507812 C 9.5345835 10.690828 8.0658342 11.345672 6.8847656 12.382812 C 6.6773086 12.56499 6.6777861 12.882863 6.8730469 13.078125 L 7.953125 14.158203 C 8.1483861 14.353465 8.4620113 14.348878 8.6738281 14.171875 C 9.1209771 13.798222 9.6288839 13.503255 10.173828 13.296875 C 10.431969 13.199115 10.864372 13.082095 11.136719 13.037109 C 12.257126 12.852044 13.397358 13.039011 14.388672 13.552734 C 14.860904 12.728637 15.700647 12.109906 16.660156 12.015625 C 15.346305 11.026556 13.74802 10.474625 12.09375 10.455078 z M 12 14.988281 C 11.338837 14.988293 10.677962 15.191958 10.119141 15.599609 C 9.8962726 15.762187 9.8984879 16.084035 10.09375 16.279297 L 11.646484 17.832031 A 0.5 0.5 0 0 0 12.353516 17.832031 L 12.990234 17.195312 C 12.933204 16.55212 13.021774 15.790499 13.498047 15.363281 C 13.030585 15.114778 12.516258 14.988273 12 14.988281 z " /><path
     id="path530"
     style="fill:#555761;stroke-width:0.280095;-inkscape-stroke:none;stop-color:#000000"
     d="M 17 13 C 15.892002 13 15 13.910252 15 15.03125 L 15 16 L 14.5 16 C 14.5 16 14 16 14 16.5 L 14 19.5 C 14 20 14.5 20 14.5 20 L 19.5 20 C 19.5 20 20 20 20 19.5 L 20 16.5 C 20 16 19.5 16 19.5 16 L 19 16 L 19 15.03125 C 19 13.911252 18.107998 13 17 13 z M 17 14 C 17.553998 14 18 14.442002 18 15 L 18 16 L 16 16 L 16 15 C 16 14.442002 16.446002 14 17 14 z " /></svg>
