<?xml version="1.0" encoding="UTF-8" standalone="no"?>
<svg
   height="24"
   width="24"
   version="1.1"
   id="svg6"
   xml:space="preserve"
   xmlns="http://www.w3.org/2000/svg"
   xmlns:svg="http://www.w3.org/2000/svg"><defs
     id="defs10" /><path
     id="path400-7-5-3-5-62-7"
     style="fill:#555761;stroke-width:0.280095;-inkscape-stroke:none;stop-color:#000000"
     d="M 11.861328 6 C 11.585222 6.0031641 11.1382 6.0269737 10.863281 6.0527344 C 8.2074328 6.3015955 5.7060122 7.4153038 3.7441406 9.2226562 C 3.5410585 9.4097434 3.5410661 9.7285662 3.7363281 9.9238281 L 4.7890625 10.976562 C 4.9843245 11.171824 5.2990423 11.169494 5.5039062 10.984375 C 9.1876145 7.6557129 14.812388 7.6557091 18.496094 10.984375 C 18.700954 11.169491 19.015675 11.171824 19.210938 10.976562 L 20.263672 9.9238281 C 20.458934 9.7285662 20.458937 9.4097479 20.255859 9.2226562 C 17.970965 7.1176251 14.967874 5.9643999 11.861328 6 z M 12.09375 10.455078 C 11.817674 10.451816 11.369919 10.475665 11.095703 10.507812 C 9.5345767 10.690828 8.065839 11.345664 6.8847656 12.382812 C 6.6773078 12.56499 6.677785 12.882863 6.8730469 13.078125 L 7.953125 14.158203 C 8.1483869 14.353465 8.4620105 14.348876 8.6738281 14.171875 C 9.1209787 13.798222 9.6288811 13.503255 10.173828 13.296875 C 10.431969 13.199113 10.864372 13.082095 11.136719 13.037109 C 12.630601 12.790351 14.160043 13.205702 15.324219 14.173828 C 15.536461 14.350328 15.851613 14.353465 16.046875 14.158203 L 17.126953 13.078125 C 17.322215 12.882863 17.322683 12.565003 17.115234 12.382812 C 15.72514 11.161972 13.943706 10.476937 12.09375 10.455078 z M 12 14.988281 C 11.338834 14.988293 10.677965 15.191955 10.119141 15.599609 C 9.8962732 15.762187 9.8984883 16.084035 10.09375 16.279297 L 11.646484 17.832031 A 0.5 0.5 0 0 0 12.353516 17.832031 L 13.90625 16.279297 C 14.101512 16.084035 14.103783 15.762217 13.880859 15.599609 C 13.322023 15.191977 12.661166 14.98827 12 14.988281 z " /></svg>
