<?xml version="1.0" encoding="UTF-8" standalone="no"?>
<svg
   height="16"
   width="16"
   version="1.1"
   id="svg6"
   xml:space="preserve"
   xmlns="http://www.w3.org/2000/svg"
   xmlns:svg="http://www.w3.org/2000/svg"><defs
     id="defs10" /><path
     id="path8117"
     style="color:#000000;font-style:normal;font-variant:normal;font-weight:normal;font-stretch:normal;font-size:medium;line-height:normal;font-family:sans-serif;font-variation-settings:normal;text-indent:0;text-align:start;text-decoration:none;text-decoration-line:none;text-decoration-style:solid;text-decoration-color:#000000;letter-spacing:normal;word-spacing:normal;text-transform:none;writing-mode:lr-tb;direction:ltr;baseline-shift:baseline;text-anchor:start;white-space:normal;clip-rule:nonzero;display:inline;overflow:visible;visibility:visible;opacity:0.5;isolation:auto;mix-blend-mode:normal;color-interpolation:sRGB;color-interpolation-filters:linearRGB;solid-color:#000000;solid-opacity:1;vector-effect:none;fill:#555761;fill-opacity:1;fill-rule:nonzero;stroke:none;stroke-width:4;stroke-linecap:round;stroke-linejoin:round;stroke-miterlimit:4;stroke-dasharray:none;stroke-dashoffset:0;stroke-opacity:1;-inkscape-stroke:none;marker:none;color-rendering:auto;image-rendering:auto;shape-rendering:auto;text-rendering:auto;enable-background:accumulate;stop-color:#000000"
     d="M 8 1 L 2.1992188 2.9003906 L 3.078125 3.7792969 L 8 2 L 13 3.8066406 L 13 4.0722656 C 13 7.0141432 12.93548 8.7448907 12.265625 10.107422 C 11.979156 10.69012 11.586535 11.234384 11.0625 11.765625 L 11.710938 12.414062 C 12.32114 11.824377 12.779999 11.213208 13.117188 10.527344 C 13.921015 8.8923064 14 6.8154094 14 3.2851562 L 14 2.9667969 L 8 1 z M 2.0058594 4.4726562 C 2.0302351 7.2961716 2.1738474 9.0852614 2.8828125 10.527344 C 3.6866393 12.16238 5.1737324 13.371271 7.7851562 14.882812 L 8 15.005859 L 8.2148438 14.882812 C 9.2221152 14.299785 10.059782 13.761357 10.757812 13.226562 L 10.125 12.59375 C 9.5782906 13.020468 8.9359779 13.44588 8.1777344 13.884766 L 8 13.988281 L 7.8222656 13.884766 C 5.646079 12.625148 4.4042305 11.469954 3.734375 10.107422 C 3.1799744 8.9797343 3.04147 7.5885221 3.0097656 5.4785156 L 2.0058594 4.4726562 z " /><rect
     style="font-variation-settings:normal;vector-effect:none;fill:#555761;fill-opacity:1;stroke:none;stroke-width:0.992001;stroke-linecap:square;stroke-linejoin:miter;stroke-miterlimit:4;stroke-dasharray:none;stroke-dashoffset:0;stroke-opacity:1;-inkscape-stroke:none;marker:none;stop-color:#000000"
     id="rect2480-1-6-9"
     width="1.248"
     height="19.799999"
     x="-0.62576413"
     y="1.416185"
     rx="0.5"
     ry="0.5"
     transform="rotate(-45)" /></svg>
