<?xml version="1.0" encoding="UTF-8" standalone="no"?>
<svg
   height="16"
   width="16"
   version="1.1"
   id="svg6"
   xml:space="preserve"
   xmlns="http://www.w3.org/2000/svg"
   xmlns:svg="http://www.w3.org/2000/svg"><defs
     id="defs10" /><path
     id="path8117"
     style="color:#000000;font-style:normal;font-variant:normal;font-weight:normal;font-stretch:normal;font-size:medium;line-height:normal;font-family:sans-serif;font-variation-settings:normal;text-indent:0;text-align:start;text-decoration:none;text-decoration-line:none;text-decoration-style:solid;text-decoration-color:#000000;letter-spacing:normal;word-spacing:normal;text-transform:none;writing-mode:lr-tb;direction:ltr;baseline-shift:baseline;text-anchor:start;white-space:normal;clip-rule:nonzero;display:inline;overflow:visible;visibility:visible;opacity:0.5;isolation:auto;mix-blend-mode:normal;color-interpolation:sRGB;color-interpolation-filters:linearRGB;solid-color:#000000;solid-opacity:1;vector-effect:none;fill:#555761;fill-opacity:1;fill-rule:nonzero;stroke:none;stroke-width:4;stroke-linecap:round;stroke-linejoin:round;stroke-miterlimit:4;stroke-dasharray:none;stroke-dashoffset:0;stroke-opacity:1;-inkscape-stroke:none;marker:none;color-rendering:auto;image-rendering:auto;shape-rendering:auto;text-rendering:auto;enable-background:accumulate;stop-color:#000000"
     d="M 8 1 L 2 2.9667969 L 2 3.2851562 C 2 6.8154094 2.0789857 8.8923064 2.8828125 10.527344 C 3.6866393 12.16238 5.1737324 13.371271 7.7851562 14.882812 L 8 15.005859 L 8.2148438 14.882812 C 10.826267 13.371271 12.31336 12.16238 13.117188 10.527344 C 13.921015 8.8923064 14 6.8154094 14 3.2851562 L 14 2.9667969 L 8 1 z M 8 2 L 13 3.8066406 L 13 4.0722656 C 13 5.4137155 12.984354 6.4943853 12.90625 7.4121094 C 13.08726 7.9976599 12.979543 8.6716985 12.619141 9.1621094 C 12.525428 9.4997457 12.410491 9.8127543 12.265625 10.107422 C 11.59577 11.469954 10.353921 12.625148 8.1777344 13.884766 L 8 13.988281 L 7.8222656 13.884766 C 5.646079 12.625148 4.4042305 11.469954 3.734375 10.107422 C 3.5892491 9.812226 3.474658 9.4984904 3.3808594 9.1601562 C 3.1811976 8.8847888 3.0518418 8.5619204 3.0253906 8.2226562 C 2.9844764 7.9473903 3.0143633 7.6721632 3.0957031 7.4140625 C 3.0174437 6.4959091 3 5.4147195 3 4.0722656 L 3 3.8066406 L 8 2 z " /><path
     d="M 5,7 A 1,1 0 1 0 5,9 1,1 0 0 0 5,7 Z M 8,7 A 1,1 0 1 0 8,9 1,1 0 0 0 8,7 Z m 3,0 a 1,1 0 1 0 0,2 1,1 0 0 0 0,-2 z"
     fill="#666666"
     id="path13257"
     style="fill:#555761" /></svg>
